<?xml version="1.0" standalone="no"?>
<!DOCTYPE svg PUBLIC "-//W3C//DTD SVG 20010904//EN"
 "http://www.w3.org/TR/2001/REC-SVG-20010904/DTD/svg10.dtd">
<svg version="1.0" xmlns="http://www.w3.org/2000/svg"
 width="500.000000pt" height="500.000000pt" viewBox="0 0 500.000000 500.000000"
 preserveAspectRatio="xMidYMid meet">
<metadata>
Created by potrace 1.14, written by Peter Selinger 2001-2017
</metadata>
<g transform="translate(0.000000,500.000000) scale(0.100000,-0.100000)"
fill="#000000" stroke="none">
<path d="M2321 4349 c-178 -19 -436 -87 -575 -153 -282 -133 -497 -294 -686
-513 -56 -65 -109 -131 -117 -148 -9 -16 -36 -59 -60 -95 -101 -148 -191 -377
-245 -624 -20 -88 -22 -131 -23 -341 0 -270 9 -332 85 -570 105 -330 330 -653
617 -886 89 -73 278 -189 392 -242 295 -137 673 -202 971 -168 597 69 1112
397 1426 907 119 194 194 390 246 644 18 88 21 140 21 315 1 189 -2 222 -26
335 -63 301 -153 510 -323 754 -93 133 -298 337 -439 438 -136 97 -348 207
-489 253 -271 89 -527 120 -775 94z m483 -149 c354 -69 665 -239 926 -507 259
-265 400 -520 474 -858 82 -369 28 -778 -149 -1134 -26 -52 -89 -154 -140
-225 -373 -522 -999 -809 -1605 -736 -381 46 -751 224 -1028 494 -166 161
-289 332 -375 521 -229 501 -223 1000 18 1485 51 104 86 157 186 290 275 365
709 618 1175 685 137 20 376 13 518 -15z"/>
<path d="M2344 4150 c-404 -46 -757 -221 -1046 -518 -182 -188 -311 -387 -387
-598 -136 -381 -138 -748 -7 -1116 119 -332 358 -637 651 -830 72 -47 158
-100 193 -117 93 -47 285 -116 387 -139 554 -128 1139 47 1551 465 298 302
461 661 489 1078 17 263 -56 609 -176 835 -93 172 -188 300 -333 446 -149 149
-224 204 -421 312 -258 142 -620 215 -901 182z m313 -196 c133 -27 296 -98
373 -161 95 -79 189 -189 204 -239 6 -19 2 -23 -31 -28 -21 -4 -72 -14 -113
-24 l-75 -17 129 -5 c89 -3 131 -9 133 -17 3 -9 -25 -13 -109 -15 l-113 -3 73
-9 c79 -9 102 -23 102 -62 0 -21 5 -24 35 -24 19 0 35 -4 35 -10 0 -6 -38 -10
-92 -11 l-93 -1 55 -11 55 -12 0 -40 0 -40 -155 -8 c-85 -4 -200 -13 -255 -20
l-100 -12 95 -6 c52 -4 168 -7 256 -8 168 -1 228 -7 218 -22 -3 -5 -18 -9 -35
-9 -24 0 -29 -4 -29 -25 l0 -25 -719 0 c-662 0 -719 1 -725 17 -4 9 -1 20 6
25 8 6 -5 8 -34 6 -31 -2 -48 1 -48 8 0 18 51 24 209 25 80 1 193 4 251 8
l105 6 -95 12 c-52 7 -166 15 -252 19 l-158 6 0 43 c0 43 0 44 43 53 39 9 36
10 -40 11 -48 1 -83 5 -83 11 0 6 18 10 40 10 39 0 40 1 40 34 l0 34 73 12
c105 17 103 18 -15 19 -89 1 -108 4 -108 16 0 13 22 15 133 16 l132 1 -117 26
-117 25 27 51 c40 76 192 223 277 268 205 107 418 142 612 102z m-1102 -576
c13 -59 55 -274 55 -281 0 -4 -5 -5 -10 -2 -6 4 -89 6 -185 5 -122 0 -175 3
-175 10 0 10 56 247 65 278 3 9 37 12 124 12 117 0 121 -1 126 -22z m2158
-125 c20 -80 35 -148 33 -150 -2 -2 -86 -2 -188 -1 l-185 3 33 145 c18 80 33
146 33 148 1 1 54 2 119 2 l119 0 36 -147z m-588 -222 l140 -8 -142 -1 c-82
-1 -144 -6 -148 -12 -3 -5 2 -10 11 -10 14 0 15 -3 6 -12 -18 -18 -927 -24
-948 -8 -7 7 -23 11 -36 10 -39 -4 -58 0 -58 9 0 5 12 12 28 14 15 2 -38 6
-118 7 l-145 4 115 6 c163 9 1128 9 1295 1z m-1695 -36 c0 -18 -5 -25 -20 -25
-15 0 -20 7 -20 25 0 18 5 25 20 25 15 0 20 -7 20 -25z m2160 0 c0 -16 -6 -25
-15 -25 -9 0 -15 9 -15 25 0 16 6 25 15 25 9 0 15 -9 15 -25z m-2360 -25 c24
-24 26 -57 3 -82 -22 -25 -33 -23 -33 6 0 39 -26 38 -59 -2 l-30 -37 -1 44 c0
78 71 120 120 71z m2629 -6 c13 -17 21 -41 21 -66 l0 -40 -29 31 c-35 37 -58
40 -67 6 -7 -30 -20 -32 -34 -6 -17 32 -12 69 12 85 34 24 73 20 97 -10z
m-2409 -44 c40 -40 19 -100 -36 -100 -28 0 -36 5 -44 26 -15 39 -12 72 8 83
26 16 50 13 72 -9z m2170 0 c12 -12 18 -26 13 -33 -4 -7 -8 -14 -8 -17 -5 -37
-19 -51 -48 -49 -44 4 -57 16 -57 55 0 57 61 83 100 44z m-2557 -38 c16 -15
25 -64 10 -60 -5 1 -21 -2 -38 -7 -26 -7 -27 -9 -10 -16 17 -6 16 -8 -8 -8
-16 -1 -26 3 -23 8 3 5 -2 8 -11 7 -36 -2 -28 74 9 91 26 11 44 7 71 -15z
m2951 -1 c23 -25 17 -60 -14 -80 -22 -15 -24 -15 -17 2 7 20 -5 22 -35 6 -18
-9 -24 -8 -35 7 -40 54 55 116 101 65z m-1626 -7 c50 -10 72 -38 72 -92 0 -34
-3 -43 -10 -32 -7 11 -10 1 -10 -34 0 -62 -30 -117 -80 -145 -54 -30 -60 -27
-60 24 0 52 -17 61 -22 13 l-3 -33 -72 -3 -73 -3 0 38 c0 28 -3 34 -10 23 -5
-8 -10 -28 -10 -43 l0 -28 -72 3 c-72 3 -73 3 -76 32 -5 41 6 76 23 76 19 0
19 3 -5 42 -11 18 -20 51 -21 73 l-1 40 -9 -49 c-4 -27 -17 -61 -27 -76 -20
-26 -20 -26 1 -36 19 -8 21 -16 18 -59 -1 -27 -4 -52 -6 -54 -11 -11 -63 15
-96 48 -31 31 -39 48 -45 92 -7 46 -9 50 -16 29 -5 -16 -6 -2 -4 38 5 71 21
97 70 111 35 10 497 14 544 5z m742 -3 c63 -13 84 -41 77 -106 -14 -124 -36
-168 -99 -201 -50 -26 -58 -20 -58 42 0 48 3 57 20 61 19 5 19 7 5 22 -8 10
-19 41 -25 71 -6 29 -12 55 -14 57 -2 2 -6 -19 -8 -47 -3 -28 -13 -59 -23 -70
-10 -11 -16 -21 -14 -23 2 -1 12 -7 23 -12 10 -6 18 -14 17 -18 0 -4 -1 -25
-1 -47 l0 -40 -62 0 c-81 0 -90 6 -86 61 3 37 6 44 26 47 l24 4 -22 23 c-13
13 -28 48 -35 77 l-13 53 -1 -46 c-1 -31 -8 -55 -22 -73 -12 -15 -20 -28 -18
-30 2 -2 13 -8 24 -14 17 -8 20 -18 17 -51 -4 -39 -5 -40 -46 -46 -22 -3 -54
-2 -71 3 -24 7 -31 14 -33 40 -5 45 -22 29 -22 -20 0 -39 -1 -40 -27 -33 -63
15 -113 82 -113 152 l-1 38 -15 -25 c-14 -24 -15 -21 -11 42 3 72 20 103 61
111 41 8 502 6 546 -2z m-1944 -76 c11 -16 11 -25 1 -44 -17 -34 -33 -36 -60
-9 -12 13 -27 25 -32 27 -11 4 -8 20 7 39 16 19 68 11 84 -13z m2702 13 c7 -7
12 -21 12 -32 0 -10 -3 -16 -6 -13 -4 4 -20 -5 -36 -18 -37 -31 -46 -31 -60 0
-18 40 3 75 45 75 18 0 38 -5 45 -12z m-2461 -135 c-4 -54 -7 -176 -7 -270 0
-109 -4 -173 -10 -173 -6 0 -10 97 -10 270 0 244 2 270 17 270 14 0 15 -11 10
-97z m2163 -172 c0 -269 -11 -362 -24 -189 -3 50 -6 174 -6 275 0 154 2 183
15 183 12 0 14 -40 15 -269z m-2280 239 c31 -31 36 -68 13 -98 -28 -38 -45
-40 -39 -5 3 16 -1 36 -10 48 -12 16 -18 17 -34 8 -16 -11 -20 -9 -25 8 -9 26
20 59 52 59 12 0 32 -9 43 -20z m2441 10 c11 -6 19 -21 19 -36 0 -21 -4 -23
-23 -19 -18 5 -26 1 -35 -19 -6 -14 -9 -32 -6 -40 10 -25 -18 -30 -38 -6 -24
29 -23 71 3 104 22 28 48 33 80 16z m139 -4 c0 -2 -7 -9 -15 -16 -13 -11 -14
-10 -9 4 5 14 24 23 24 12z m-2845 -26 c21 -24 13 -65 -18 -84 -23 -15 -71 11
-75 41 -8 57 54 86 93 43z m2978 -1 c29 -41 -9 -94 -58 -81 -59 16 -47 102 15
102 18 0 34 -8 43 -21z m-2849 -60 c31 -25 34 -61 6 -89 -25 -25 -51 -25 -80
-2 -30 24 -30 70 0 94 29 23 41 23 74 -3z m2710 0 c14 -11 26 -30 26 -41 0
-29 -28 -58 -48 -51 -9 4 -13 2 -9 -4 5 -8 -6 -9 -44 -4 -3 1 -11 12 -17 26
-14 30 -2 68 25 84 26 15 37 13 67 -10z m-2638 -56 c-11 -11 -17 4 -9 23 7 18
8 18 11 1 2 -10 1 -21 -2 -24z m375 7 c19 -6 45 -21 57 -33 23 -24 49 -92 32
-82 -6 4 -11 -89 -12 -227 l-3 -233 -52 -3 -52 -3 1 153 c1 184 -7 218 -63
254 -42 26 -61 61 -61 107 1 64 65 91 153 67z m1846 0 c38 -14 56 -51 47 -99
-8 -43 -27 -67 -59 -75 -13 -3 -30 -21 -41 -43 -16 -32 -19 -63 -20 -198 l0
-160 -50 0 -49 0 -5 235 c-3 129 -7 229 -8 221 -1 -8 -5 -12 -8 -8 -3 3 -1 21
5 40 25 75 109 114 188 87z m-2494 -20 c31 -25 47 -87 26 -101 -21 -13 -51 -1
-81 32 -32 34 -36 63 -10 78 25 15 36 13 65 -9z m3098 10 c28 -15 24 -36 -13
-70 -21 -19 -26 -28 -14 -23 13 4 17 3 12 -5 -4 -7 -23 -12 -42 -12 -31 0 -34
2 -34 31 0 39 16 68 43 79 29 11 26 11 48 0z m-2823 -82 c17 -17 15 -42 -7
-62 -18 -16 -56 -12 -45 5 3 5 -1 9 -8 9 -8 0 -9 3 -3 8 6 4 10 13 11 20 2 28
5 32 22 32 10 0 23 -5 30 -12z m2543 -15 c11 -20 11 -27 2 -30 -7 -3 -13 -11
-13 -19 0 -22 -28 -16 -45 10 -13 19 -14 29 -5 45 15 29 44 26 61 -6z m129
-34 c6 -11 9 -25 6 -32 -2 -7 -5 -4 -5 5 -1 9 -13 29 -28 44 -24 22 -25 24 -6
15 13 -6 27 -21 33 -32z m-2838 4 c-11 -16 -22 -37 -25 -48 -4 -19 -5 -19 -6
1 0 12 8 33 20 48 27 34 36 34 11 -1z m76 -95 c7 -7 11 -37 10 -72 l-1 -61 -7
50 c-7 50 -10 47 -13 -10 l-2 -30 -75 -1 c-41 -1 -58 1 -37 3 23 3 49 15 69
33 l32 29 -115 3 c-100 3 -114 5 -117 21 -9 43 2 47 126 47 78 0 122 -4 130
-12z m1290 0 c7 -7 12 -38 12 -70 l0 -58 -340 0 -340 0 0 64 c0 42 4 66 13 69
6 3 154 6 328 6 232 1 318 -2 327 -11z m746 6 c12 -5 16 -21 16 -70 l0 -64
-340 0 -340 0 0 24 c0 13 -3 37 -6 53 -4 21 -1 35 11 46 15 15 51 17 330 17
172 0 320 -3 329 -6z m879 -24 c-2 -37 -12 -92 -17 -97 -3 -3 -26 -7 -53 -8
l-48 -3 50 13 c28 7 46 14 40 14 -5 1 -3 6 5 11 12 8 11 10 -7 10 -13 0 -23 3
-23 8 0 4 -41 8 -92 9 -61 1 -94 6 -99 15 -5 7 -9 -10 -12 -42 l-3 -55 -2 66
c-1 40 3 70 10 77 9 9 48 12 133 10 l120 -3 -2 -25z m-3133 -54 c0 -3 -4 -8
-10 -11 -5 -3 -10 -1 -10 4 0 6 5 11 10 11 6 0 10 -2 10 -4z m20 -40 c0 -3 -4
-8 -10 -11 -5 -3 -10 -1 -10 4 0 6 5 11 10 11 6 0 10 -2 10 -4z m2943 -13
c-13 -2 -33 -2 -45 0 -13 2 -3 4 22 4 25 0 35 -2 23 -4z m-2479 -69 c3 -9 6
-54 6 -100 0 -77 -2 -84 -20 -84 -19 0 -20 7 -20 93 0 52 3 97 7 100 11 11 20
8 27 -9z m2166 -90 c0 -77 -3 -94 -15 -94 -12 0 -15 17 -15 93 0 52 3 97 6
100 17 17 24 -12 24 -99z m-2442 -1 c-2 -89 -2 -92 -5 -25 l-4 72 -109 0 -110
0 0 25 0 25 115 0 115 0 -2 -97z m2916 88 c4 -5 3 -16 0 -25 -5 -13 -24 -16
-110 -16 l-104 0 0 -70 c0 -40 -4 -70 -10 -70 -11 0 -14 172 -3 183 10 11 221
8 227 -2z m-856 -6 c-9 -9 -1428 -11 -1428 -3 0 4 322 8 717 8 394 0 714 -2
711 -5z m2 -115 c0 -7 -245 -10 -715 -10 -470 0 -715 3 -715 10 0 7 245 10
715 10 470 0 715 -3 715 -10z m700 -177 c0 -4 -19 -45 -42 -90 l-41 -83 -109
0 -108 0 0 -30 0 -30 91 0 90 0 -22 -32 c-74 -105 -178 -224 -252 -288 l-84
-72 -219 1 -220 2 -65 -31 c-35 -16 -70 -30 -78 -30 -20 0 -9 -19 58 -108 34
-43 61 -81 61 -84 0 -3 -19 -10 -41 -17 -49 -15 -41 -22 -105 102 l-45 88 -37
-7 c-53 -10 -54 -11 -28 -52 51 -81 87 -162 74 -167 -21 -7 -180 -25 -226 -25
l-43 0 3 110 3 110 -44 0 -43 0 7 -112 7 -111 -83 7 c-141 11 -179 18 -179 31
0 14 58 120 90 166 l21 28 -23 6 c-67 15 -69 14 -110 -65 -63 -122 -61 -120
-108 -108 -22 6 -40 14 -40 18 0 8 59 88 103 139 16 18 25 37 20 41 -4 4 -36
17 -71 30 -34 12 -65 27 -68 31 -3 5 -106 9 -228 9 l-224 0 -88 78 c-84 75
-255 276 -263 309 -3 14 8 15 83 9 l86 -7 0 30 0 31 -105 0 -105 0 -45 90 -45
90 1420 0 c781 0 1420 -3 1420 -7z m-1880 -720 c-11 -16 -37 -49 -56 -75 -20
-27 -39 -48 -44 -48 -10 0 -237 117 -264 136 -18 12 4 14 183 14 l203 0 -22
-27z m1245 -14 c-38 -23 -103 -58 -144 -78 l-73 -36 -27 35 c-14 19 -43 54
-65 77 l-39 43 209 0 209 0 -70 -41z"/>
<path d="M1525 3354 c2 -10 9 -45 16 -77 6 -32 13 -56 16 -54 6 7 -18 130 -28
141 -4 5 -6 0 -4 -10z"/>
<path d="M1561 3194 c0 -11 3 -14 6 -6 3 7 2 16 -1 19 -3 4 -6 -2 -5 -13z"/>
<path d="M3445 3315 c-4 -25 -5 -48 -2 -51 2 -3 8 16 12 41 3 26 4 49 2 52 -3
3 -9 -16 -12 -42z"/>
<path d="M3427 3231 c-4 -17 -3 -21 5 -13 5 5 8 16 6 23 -3 8 -7 3 -11 -10z"/>
<path d="M3421 3174 c0 -11 3 -14 6 -6 3 7 2 16 -1 19 -3 4 -6 -2 -5 -13z"/>
<path d="M2028 3013 c7 -3 16 -2 19 1 4 3 -2 6 -13 5 -11 0 -14 -3 -6 -6z"/>
<path d="M2778 3013 c7 -3 16 -2 19 1 4 3 -2 6 -13 5 -11 0 -14 -3 -6 -6z"/>
<path d="M2121 2787 c-1 -39 -17 -76 -38 -90 -7 -4 -13 -13 -13 -19 0 -6 3 -8
7 -5 3 4 15 -1 25 -10 14 -13 21 -14 30 -5 7 7 20 12 30 12 17 0 17 2 -4 30
-12 17 -25 52 -29 78 -6 45 -6 45 -8 9z"/>
<path d="M2288 2800 c-4 -14 -8 -33 -8 -43 0 -11 -9 -32 -21 -49 -12 -16 -20
-30 -18 -31 2 -1 15 -8 28 -15 17 -10 26 -11 34 -3 6 6 19 11 29 11 17 0 17 1
-2 20 -21 21 -28 43 -32 100 -3 32 -4 33 -10 10z"/>
<path d="M2692 2762 c-8 -36 -19 -65 -28 -69 -21 -8 -17 -16 13 -31 18 -8 30
-9 37 -2 5 5 18 10 28 10 21 0 24 18 4 26 -18 7 -34 48 -38 94 -3 31 -5 27
-16 -28z"/>
<path d="M998 2643 c6 -2 18 -2 25 0 6 3 1 5 -13 5 -14 0 -19 -2 -12 -5z"/>
<path d="M3875 2590 c-3 -5 -2 -10 4 -10 5 0 13 5 16 10 3 6 2 10 -4 10 -5 0
-13 -4 -16 -10z"/>
<path d="M910 2541 c0 -13 48 -46 56 -38 3 2 -9 15 -25 27 -17 12 -31 17 -31
11z"/>
<path d="M1472 1750 c-12 -12 -22 -27 -22 -36 0 -22 41 -34 58 -17 21 21 56
12 60 -14 3 -22 -6 -27 -45 -26 -8 1 -13 -12 -13 -33 0 -31 3 -34 29 -34 34 0
44 -11 35 -35 -7 -17 -14 -17 -84 0 -14 3 -31 1 -39 -4 -12 -8 -12 -13 2 -34
35 -53 125 -60 173 -12 28 28 31 70 8 103 -14 20 -14 24 0 44 23 33 20 56 -13
89 -25 24 -38 29 -78 29 -36 0 -55 -6 -71 -20z"/>
<path d="M1740 1625 l0 -145 115 0 115 0 0 35 0 35 -80 0 -80 0 0 110 0 110
-35 0 -35 0 0 -145z"/>
<path d="M2020 1625 l0 -145 125 0 125 0 0 35 0 35 -86 0 c-76 0 -85 2 -82 18
3 14 14 17 66 17 l62 0 0 32 0 32 -62 3 c-57 3 -63 5 -66 26 -3 21 -1 22 76
22 l80 0 4 35 4 35 -123 0 -123 0 0 -145z"/>
<path d="M2381 1748 c-68 -47 -89 -128 -50 -198 51 -90 165 -105 242 -32 22
21 27 34 27 74 l0 48 -80 0 -80 0 0 -30 c0 -28 2 -30 40 -30 43 0 52 -13 21
-30 -30 -15 -56 -12 -85 11 -34 27 -37 88 -4 119 25 23 76 26 104 6 17 -13 22
-12 46 11 l27 26 -26 21 c-18 14 -45 21 -87 24 -51 3 -66 0 -95 -20z"/>
<path d="M2725 1723 c-10 -26 -38 -92 -61 -146 -24 -53 -44 -98 -44 -100 0 -1
20 -1 45 1 38 3 46 8 51 28 6 22 11 24 63 24 52 0 59 -3 69 -25 8 -17 20 -25
36 -25 13 0 32 -3 42 -7 24 -9 17 17 -49 167 l-54 125 -40 3 c-39 3 -40 2 -58
-45z m80 -105 c6 -25 5 -28 -19 -28 -29 0 -31 6 -16 46 12 31 25 24 35 -18z"/>
<path d="M2990 1626 c0 -152 1 -157 47 -148 21 4 23 9 23 76 l1 71 35 -40 c19
-22 47 -57 61 -77 21 -31 31 -37 59 -36 l34 1 0 149 0 148 -35 0 -34 0 -3 -81
-3 -81 -60 81 c-54 72 -63 81 -92 81 l-33 0 0 -144z"/>
<path d="M3300 1735 c0 -35 0 -35 45 -35 l45 0 0 -110 0 -110 40 0 40 0 0 110
0 110 39 0 c37 0 39 2 43 35 l4 35 -128 0 -128 0 0 -35z"/>
<path d="M2268 1348 c-4 -57 -32 -60 -36 -5 -4 49 -22 48 -22 -3 0 -74 71 -77
83 -4 6 38 2 54 -13 54 -5 0 -10 -19 -12 -42z"/>
<path d="M2450 1337 c0 -31 5 -57 10 -57 6 0 10 15 10 33 l0 32 26 -33 c14
-18 29 -30 33 -28 11 7 7 91 -4 94 -5 1 -12 -7 -13 -19 -4 -21 -4 -20 -33 7
l-29 28 0 -57z"/>
<path d="M2783 1383 c-32 -4 -33 -6 -33 -52 0 -47 0 -47 35 -48 39 -1 48 14
13 19 -13 2 -23 8 -23 13 0 6 10 11 23 13 30 5 28 22 -4 22 -14 0 -23 4 -19
10 3 6 15 10 26 10 10 0 19 5 19 10 0 6 -1 9 -2 8 -2 0 -18 -3 -35 -5z"/>
<path d="M2110 1330 c0 -27 5 -50 10 -50 6 0 10 11 10 25 0 18 5 25 20 25 11
0 20 5 20 10 0 6 -7 10 -16 8 -10 -2 -19 3 -22 11 -3 10 2 13 22 9 14 -3 26
-1 26 3 0 5 -16 9 -35 9 l-35 0 0 -50z"/>
<path d="M2330 1331 c0 -28 5 -51 10 -51 6 0 10 9 10 20 0 24 13 26 30 5 20
-24 25 -18 25 28 0 41 -1 42 -37 45 l-38 3 0 -50z m60 19 c0 -5 -9 -10 -20
-10 -11 0 -20 5 -20 10 0 6 9 10 20 10 11 0 20 -4 20 -10z"/>
<path d="M2579 1365 c-5 -50 -3 -75 6 -77 6 -2 11 18 13 45 2 28 -1 47 -7 47
-6 0 -12 -7 -12 -15z"/>
<path d="M2630 1336 c0 -25 5 -48 10 -51 6 -3 10 3 10 14 0 27 21 27 38 1 7
-12 17 -18 23 -14 8 4 8 9 0 17 -6 6 -7 16 -1 28 17 31 1 49 -41 49 l-39 0 0
-44z m65 14 c-3 -5 -15 -10 -26 -10 -10 0 -19 5 -19 10 0 6 12 10 26 10 14 0
23 -4 19 -10z"/>
<path d="M1620 1360 c0 -6 69 -10 186 -10 121 0 183 3 179 10 -4 6 -77 10
-186 10 -113 0 -179 -4 -179 -10z"/>
<path d="M2980 1360 c0 -6 70 -10 190 -10 120 0 190 4 190 10 0 6 -70 10 -190
10 -120 0 -190 -4 -190 -10z"/>
</g>
</svg>
